<svg width="300" height="100" viewBox="0 0 300 100" fill="none" xmlns="http://www.w3.org/2000/svg">
<path d="M127.752 56.128C126.632 56.128 125.619 55.8827 124.712 55.392C123.816 54.8907 123.112 54.208 122.6 53.344C122.088 52.4693 121.832 51.488 121.832 50.4C121.832 49.312 122.088 48.336 122.6 47.472C123.112 46.5973 123.821 45.9147 124.728 45.424C125.635 44.9227 126.648 44.672 127.768 44.672C128.643 44.672 129.443 44.8213 130.168 45.12C130.893 45.408 131.512 45.84 132.024 46.416L130.984 47.424C130.141 46.5387 129.091 46.096 127.832 46.096C127 46.096 126.248 46.2827 125.576 46.656C124.904 47.0293 124.376 47.5467 123.992 48.208C123.619 48.8587 123.432 49.5893 123.432 50.4C123.432 51.2107 123.619 51.9467 123.992 52.608C124.376 53.2587 124.904 53.7707 125.576 54.144C126.248 54.5173 127 54.704 127.832 54.704C129.08 54.704 130.131 54.256 130.984 53.36L132.024 54.368C131.512 54.944 130.888 55.3813 130.152 55.68C129.427 55.9787 128.627 56.128 127.752 56.128ZM143.748 47.52V56H142.356V49.808L139.188 55.04H138.516L135.38 49.792V56H133.972V47.52H135.556L138.884 53.248L142.308 47.52H143.748ZM150.37 56.096C149.527 56.096 148.77 55.9093 148.098 55.536C147.426 55.1627 146.898 54.6507 146.514 54C146.141 53.3387 145.954 52.592 145.954 51.76C145.954 50.928 146.141 50.1867 146.514 49.536C146.898 48.8747 147.426 48.3627 148.098 48C148.77 47.6267 149.527 47.44 150.37 47.44C151.213 47.44 151.965 47.6267 152.626 48C153.298 48.3627 153.821 48.8747 154.194 49.536C154.578 50.1867 154.77 50.928 154.77 51.76C154.77 52.592 154.578 53.3387 154.194 54C153.821 54.6507 153.298 55.1627 152.626 55.536C151.965 55.9093 151.213 56.096 150.37 56.096ZM150.37 54.752C150.914 54.752 151.399 54.6293 151.826 54.384C152.263 54.128 152.605 53.776 152.85 53.328C153.095 52.8693 153.218 52.3467 153.218 51.76C153.218 51.1733 153.095 50.656 152.85 50.208C152.605 49.7493 152.263 49.3973 151.826 49.152C151.399 48.9067 150.914 48.784 150.37 48.784C149.826 48.784 149.335 48.9067 148.898 49.152C148.471 49.3973 148.13 49.7493 147.874 50.208C147.629 50.656 147.506 51.1733 147.506 51.76C147.506 52.3467 147.629 52.8693 147.874 53.328C148.13 53.776 148.471 54.128 148.898 54.384C149.335 54.6293 149.826 54.752 150.37 54.752ZM162.996 48.864H159.891V56H158.356V48.864H155.252V47.52H162.996V48.864ZM169.062 47.44C169.883 47.44 170.619 47.6213 171.27 47.984C171.921 48.3467 172.427 48.8533 172.79 49.504C173.163 50.1547 173.35 50.9067 173.35 51.76C173.35 52.6133 173.163 53.3707 172.79 54.032C172.427 54.6827 171.921 55.1893 171.27 55.552C170.619 55.9147 169.883 56.096 169.062 56.096C168.454 56.096 167.894 55.9787 167.382 55.744C166.881 55.5093 166.454 55.168 166.102 54.72V59.104H164.566V47.52H166.038V48.864C166.379 48.3947 166.811 48.0427 167.334 47.808C167.857 47.5627 168.433 47.44 169.062 47.44ZM168.934 54.752C169.478 54.752 169.963 54.6293 170.39 54.384C170.827 54.128 171.169 53.776 171.414 53.328C171.67 52.8693 171.798 52.3467 171.798 51.76C171.798 51.1733 171.67 50.656 171.414 50.208C171.169 49.7493 170.827 49.3973 170.39 49.152C169.963 48.9067 169.478 48.784 168.934 48.784C168.401 48.784 167.915 48.912 167.478 49.168C167.051 49.4133 166.71 49.76 166.454 50.208C166.209 50.656 166.086 51.1733 166.086 51.76C166.086 52.3467 166.209 52.8693 166.454 53.328C166.699 53.776 167.041 54.128 167.478 54.384C167.915 54.6293 168.401 54.752 168.934 54.752ZM183.246 51.808C183.246 51.9253 183.235 52.08 183.214 52.272H176.334C176.43 53.0187 176.755 53.6213 177.31 54.08C177.875 54.528 178.574 54.752 179.406 54.752C180.419 54.752 181.235 54.4107 181.854 53.728L182.702 54.72C182.318 55.168 181.838 55.5093 181.262 55.744C180.696 55.9787 180.062 56.096 179.358 56.096C178.462 56.096 177.667 55.9147 176.974 55.552C176.28 55.1787 175.742 54.6613 175.358 54C174.984 53.3387 174.798 52.592 174.798 51.76C174.798 50.9387 174.979 50.1973 175.342 49.536C175.715 48.8747 176.222 48.3627 176.862 48C177.512 47.6267 178.243 47.44 179.054 47.44C179.864 47.44 180.584 47.6267 181.214 48C181.854 48.3627 182.35 48.8747 182.702 49.536C183.064 50.1973 183.246 50.9547 183.246 51.808ZM179.054 48.736C178.318 48.736 177.699 48.96 177.198 49.408C176.707 49.856 176.419 50.4427 176.334 51.168H181.774C181.688 50.4533 181.395 49.872 180.894 49.424C180.403 48.9653 179.79 48.736 179.054 48.736ZM191.589 48.864H188.485V56H186.949V48.864H183.845V47.52H191.589V48.864ZM197.08 50.4C198.157 50.4107 198.979 50.656 199.544 51.136C200.109 51.616 200.392 52.2933 200.392 53.168C200.392 54.0853 200.083 54.7947 199.464 55.296C198.856 55.7867 197.981 56.0267 196.84 56.016L193.16 56V47.52H194.696V50.384L197.08 50.4ZM196.712 54.848C197.405 54.8587 197.928 54.72 198.28 54.432C198.643 54.144 198.824 53.7173 198.824 53.152C198.824 52.5973 198.648 52.192 198.296 51.936C197.955 51.68 197.427 51.5467 196.712 51.536L194.696 51.504V54.832L196.712 54.848ZM212.436 51.6C213.535 51.8773 214.084 52.5653 214.084 53.664C214.084 54.4107 213.801 54.9867 213.236 55.392C212.681 55.7973 211.849 56 210.74 56H206.66V47.52H210.596C211.599 47.52 212.383 47.712 212.948 48.096C213.513 48.4693 213.796 49.0027 213.796 49.696C213.796 50.144 213.673 50.5333 213.428 50.864C213.193 51.184 212.863 51.4293 212.436 51.6ZM208.164 51.168H210.468C211.055 51.168 211.497 51.0613 211.796 50.848C212.105 50.6347 212.26 50.3253 212.26 49.92C212.26 49.1093 211.663 48.704 210.468 48.704H208.164V51.168ZM210.628 54.816C211.268 54.816 211.748 54.7147 212.068 54.512C212.388 54.3093 212.548 53.9947 212.548 53.568C212.548 53.1307 212.399 52.8053 212.1 52.592C211.812 52.3787 211.353 52.272 210.724 52.272H208.164V54.816H210.628ZM216.488 47.52H218.024V53.696L223.224 47.52H224.616V56H223.08V49.824L217.896 56H216.488V47.52ZM236.221 54.656V57.968H234.781V56H227.693V57.968H226.237V54.656H226.685C227.229 54.624 227.603 54.24 227.805 53.504C228.008 52.768 228.147 51.728 228.221 50.384L228.349 47.52H234.925V54.656H236.221ZM229.629 50.496C229.587 51.5627 229.496 52.448 229.357 53.152C229.229 53.8453 228.989 54.3467 228.637 54.656H233.389V48.864H229.709L229.629 50.496ZM245.886 51.808C245.886 51.9253 245.876 52.08 245.854 52.272H238.974C239.07 53.0187 239.396 53.6213 239.95 54.08C240.516 54.528 241.214 54.752 242.046 54.752C243.06 54.752 243.876 54.4107 244.494 53.728L245.342 54.72C244.958 55.168 244.478 55.5093 243.902 55.744C243.337 55.9787 242.702 56.096 241.998 56.096C241.102 56.096 240.308 55.9147 239.614 55.552C238.921 55.1787 238.382 54.6613 237.998 54C237.625 53.3387 237.438 52.592 237.438 51.76C237.438 50.9387 237.62 50.1973 237.982 49.536C238.356 48.8747 238.862 48.3627 239.502 48C240.153 47.6267 240.884 47.44 241.694 47.44C242.505 47.44 243.225 47.6267 243.854 48C244.494 48.3627 244.99 48.8747 245.342 49.536C245.705 50.1973 245.886 50.9547 245.886 51.808ZM241.694 48.736C240.958 48.736 240.34 48.96 239.838 49.408C239.348 49.856 239.06 50.4427 238.974 51.168H244.414C244.329 50.4533 244.036 49.872 243.534 49.424C243.044 48.9653 242.43 48.736 241.694 48.736ZM251.901 56.096C251.059 56.096 250.301 55.9093 249.629 55.536C248.957 55.1627 248.429 54.6507 248.045 54C247.672 53.3387 247.485 52.592 247.485 51.76C247.485 50.928 247.672 50.1867 248.045 49.536C248.429 48.8747 248.957 48.3627 249.629 48C250.301 47.6267 251.059 47.44 251.901 47.44C252.744 47.44 253.496 47.6267 254.157 48C254.829 48.3627 255.352 48.8747 255.725 49.536C256.109 50.1867 256.301 50.928 256.301 51.76C256.301 52.592 256.109 53.3387 255.725 54C255.352 54.6507 254.829 55.1627 254.157 55.536C253.496 55.9093 252.744 56.096 251.901 56.096ZM251.901 54.752C252.445 54.752 252.931 54.6293 253.357 54.384C253.795 54.128 254.136 53.776 254.381 53.328C254.627 52.8693 254.749 52.3467 254.749 51.76C254.749 51.1733 254.627 50.656 254.381 50.208C254.136 49.7493 253.795 49.3973 253.357 49.152C252.931 48.9067 252.445 48.784 251.901 48.784C251.357 48.784 250.867 48.9067 250.429 49.152C250.003 49.3973 249.661 49.7493 249.405 50.208C249.16 50.656 249.037 51.1733 249.037 51.76C249.037 52.3467 249.16 52.8693 249.405 53.328C249.661 53.776 250.003 54.128 250.429 54.384C250.867 54.6293 251.357 54.752 251.901 54.752Z" fill="white"/>
<rect x="0.5" y="0.5" width="299" height="99" rx="49.5" stroke="white"/>
<circle cx="70" cy="50" r="30" fill="#4985FF"/>
<path d="M70 20C53.4317 20 40 33.4314 40 50C40 66.5686 53.4317 80 70 80C86.5683 80 100 66.5686 100 50C100 33.4314 86.5683 20 70 20ZM80.3688 51.5902L65.3687 60.9652C65.0652 61.1547 64.7201 61.25 64.375 61.25C64.0623 61.25 63.7492 61.1722 63.4659 61.0147C62.8698 60.6842 62.5 60.057 62.5 59.375V40.625C62.5 39.943 62.8698 39.3158 63.4659 38.9853C64.0619 38.653 64.7907 38.6731 65.3687 39.0348L80.3688 48.4098C80.9167 48.7531 81.25 49.3537 81.25 50C81.25 50.6463 80.9167 51.247 80.3688 51.5902Z" fill="white"/>
</svg>
